<svg width="370" height="172" viewBox="0 0 370 172" fill="none" xmlns="http://www.w3.org/2000/svg">
<g opacity="0.30338">
<path fill-rule="evenodd" clip-rule="evenodd" d="M-37.6797 121.03L-37.6797 166.492L1.69229 189.223L41.0842 166.492L41.0842 121.03L1.69229 98.2993L-37.6797 121.03ZM-39.591 167.598L-39.591 119.924L-39.1225 119.642L1.69235 96.0872L2.1808 96.3593L42.9948 119.924L42.9948 167.598L42.5263 167.879L1.69235 191.434L1.2064 191.162L-39.591 167.598Z" fill="#FEFEFE"/>
<path fill-rule="evenodd" clip-rule="evenodd" d="M146.907 177.911V191.275L158.481 197.957L170.06 191.275V177.911L158.481 171.229L146.907 177.911ZM146.347 191.6V177.586L146.484 177.504L158.481 170.58L158.625 170.659L170.623 177.586V191.6L170.485 191.683L158.481 198.607L158.338 198.528L146.347 191.6Z" fill="#FEFEFE"/>
<path fill-rule="evenodd" clip-rule="evenodd" d="M82.8402 79.9601V99.0653L99.3875 108.619L115.94 99.0653V79.9601L99.3875 70.4075L82.8402 79.9601ZM82.0374 99.5309V79.4962L82.2338 79.3781L99.3877 69.4785L99.5907 69.5925L116.745 79.4962V99.5309L116.547 99.649L99.3877 109.548L99.1813 109.434L82.0374 99.5309Z" fill="#FEFEFE"/>
<path fill-rule="evenodd" clip-rule="evenodd" d="M24.6355 29.4569L24.6355 50.3153L42.6997 60.7441L60.7723 50.3153L60.7723 29.4569L42.6997 19.0281L24.6355 29.4569ZM23.7579 50.8216L23.7579 28.9497L23.9726 28.8199L42.7 18.0125L42.923 18.1373L61.647 28.9497L61.647 50.8216L61.4332 50.9506L42.7 61.758L42.4753 61.6332L23.7579 50.8216Z" fill="#FEFEFE"/>
<path fill-rule="evenodd" clip-rule="evenodd" d="M40.791 120.507L82.5636 98.543L83.1269 99.5972L41.3535 121.562L40.791 120.507Z" fill="#FEFEFE"/>
<mask id="mask0_316_181" style="mask-type:luminance" maskUnits="userSpaceOnUse" x="-197" y="-1" width="679" height="343">
<path fill-rule="evenodd" clip-rule="evenodd" d="M481.999 341.278L-196.999 341.278L-196.999 -0.168945L481.999 -0.168945L481.999 341.278Z" fill="white"/>
</mask>
<g mask="url(#mask0_316_181)">
<path fill-rule="evenodd" clip-rule="evenodd" d="M273.699 102.848V148.31L313.071 171.041L352.461 148.31V102.848L313.071 80.1171L273.699 102.848ZM271.787 149.415V101.741L272.256 101.46L313.07 77.9048L313.557 78.1769L354.372 101.741V149.415L353.904 149.696L313.07 173.252L312.583 172.98L271.787 149.415Z" fill="#FEFEFE"/>
<path fill-rule="evenodd" clip-rule="evenodd" d="M181.715 156.033V194.529L215.053 213.777L248.407 194.529V156.033L215.053 136.786L181.715 156.033ZM180.097 195.465V155.097L180.493 154.859L215.053 134.912L215.466 135.143L250.027 155.097V195.465L249.63 195.703L215.053 215.649L214.64 215.419L180.097 195.465Z" fill="#FEFEFE"/>
<path fill-rule="evenodd" clip-rule="evenodd" d="M115.308 121.907V144.057L134.49 155.131L153.681 144.057V121.907L134.49 110.832L115.308 121.907ZM114.378 144.596V121.369L114.606 121.232L134.49 109.756L134.729 109.888L154.614 121.369V144.596L154.384 144.733L134.49 156.21L134.254 156.077L114.378 144.596Z" fill="#FEFEFE"/>
<path fill-rule="evenodd" clip-rule="evenodd" d="M199.067 66.8425V85.5782L215.293 94.9461L231.527 85.5782V66.8425L215.293 57.4747L199.067 66.8425ZM198.279 86.0347V66.387L198.472 66.2713L215.293 56.564L215.494 56.6755L232.314 66.387V86.0347L232.121 86.1504L215.293 95.8577L215.092 95.7462L198.279 86.0347Z" fill="#FEFEFE"/>
<path fill-rule="evenodd" clip-rule="evenodd" d="M373.025 10.7664L354.3 -0.0443735L354.077 -0.169189H354.075L335.35 10.6374L335.135 10.7664V32.6391L353.853 43.4515L354.076 43.5755L372.811 32.7681L373.025 32.6391V10.7664ZM354.076 0.845916L372.148 11.2739V32.1315L354.076 42.5611L336.012 32.1315V11.2739L354.076 0.845916Z" fill="#FEFEFE"/>
<path fill-rule="evenodd" clip-rule="evenodd" d="M352.169 102.323L393.942 80.3586L394.505 81.4129L352.731 103.377L352.169 102.323Z" fill="#FEFEFE"/>
<path fill-rule="evenodd" clip-rule="evenodd" d="M312.551 171.04V218.237H313.77V171.04H312.551Z" fill="#FEFEFE"/>
<path fill-rule="evenodd" clip-rule="evenodd" d="M231.301 86.1338L231.769 85.033L273.941 102.3L273.472 103.401L231.301 86.1338Z" fill="#FEFEFE"/>
<path fill-rule="evenodd" clip-rule="evenodd" d="M214.69 94.9436V136.072H215.908V94.9436H214.69Z" fill="#FEFEFE"/>
<path fill-rule="evenodd" clip-rule="evenodd" d="M153.447 144.612L153.916 143.511L181.351 155.342L180.883 156.444L153.447 144.612Z" fill="#FEFEFE"/>
</g>
<path fill-rule="evenodd" clip-rule="evenodd" d="M-14.8829 247.453L17.1624 228.962L17.1624 191.979L-14.8829 173.488L-46.9107 191.979L-46.9107 228.962L-14.8829 247.453ZM-15.2797 171.91L-14.8828 171.689L18.3358 190.852L18.7169 191.08L18.7169 229.862L-14.4867 249.031L-14.8828 249.252L-48.0838 230.09L-48.4649 229.862L-48.4649 191.08L-15.2797 171.91Z" fill="#FEFEFE"/>
<path fill-rule="evenodd" clip-rule="evenodd" d="M-14.8803 134.175L10.7703 119.374L10.7703 89.7697L-14.8803 74.9682L-40.5191 89.7697L-40.5191 119.374L-14.8803 134.175ZM-15.1984 73.7047L-14.8805 73.5283L11.7086 88.8665L12.0132 89.0496L12.0132 120.093L-14.5635 135.438L-14.8805 135.615L-41.458 120.276L-41.7626 120.093L-41.7626 89.0496L-15.1984 73.7047Z" fill="#FEFEFE"/>
<path fill-rule="evenodd" clip-rule="evenodd" d="M57.8828 93.4786L74.7088 83.7696V64.3515L57.8828 54.6417L41.0668 64.3515L41.0668 83.7696L57.8828 93.4786ZM57.6744 53.814L57.8824 53.6975L75.3251 63.7593L75.5239 63.8792V84.2417L58.0905 94.3077L57.8824 94.4233L40.449 84.3623L40.2509 84.2417L40.2509 63.8792L57.6744 53.814Z" fill="#FEFEFE"/>
<path fill-rule="evenodd" clip-rule="evenodd" d="M112.661 188.126L122.081 182.691V171.819L112.661 166.383L103.247 171.819V182.691L112.661 188.126ZM112.546 165.919L112.661 165.854L122.427 171.487L122.538 171.554V182.954L112.78 188.589L112.661 188.655L102.902 183.022L102.791 182.954V171.554L112.546 165.919Z" fill="#FEFEFE"/>
<path fill-rule="evenodd" clip-rule="evenodd" d="M57.9134 172.373L80.0291 159.611L80.0291 134.086L57.9134 121.324L35.8084 134.086L35.8084 159.611L57.9134 172.373ZM57.6398 120.236L57.9135 120.083L80.8414 133.309L81.1043 133.466L81.1043 160.232L58.1873 173.464L57.9135 173.616L34.999 160.39L34.736 160.232L34.736 133.466L57.6398 120.236Z" fill="#FEFEFE"/>
<path fill-rule="evenodd" clip-rule="evenodd" d="M80.2178 159.996L103.222 172.108L103.603 171.422L80.5989 159.311L80.2178 159.996Z" fill="#FEFEFE"/>
<mask id="mask1_316_181" style="mask-type:luminance" maskUnits="userSpaceOnUse" x="-197" y="-1" width="679" height="343">
<path fill-rule="evenodd" clip-rule="evenodd" d="M-197 -0.169922L-197 341.278L482 341.278L482 -0.169922L-197 -0.169922Z" fill="white"/>
</mask>
<g mask="url(#mask1_316_181)">
<path fill-rule="evenodd" clip-rule="evenodd" d="M10.5209 119.791L35.1829 134.256L35.6772 133.417L11.016 118.952L10.5209 119.791Z" fill="#FEFEFE"/>
<path fill-rule="evenodd" clip-rule="evenodd" d="M57.6532 93.7852L57.6532 121.02H58.6451L58.6451 93.7852H57.6532Z" fill="#FEFEFE"/>
<path fill-rule="evenodd" clip-rule="evenodd" d="M238.419 148.967L264.069 134.166V104.562L238.419 89.7601L212.782 104.562V134.166L238.419 148.967ZM238.102 88.4958L238.419 88.3186L265.009 103.658L265.313 103.841V134.884L238.736 150.229L238.419 150.405L211.841 135.067L211.537 134.884V103.841L238.102 88.4958Z" fill="#FEFEFE"/>
<path fill-rule="evenodd" clip-rule="evenodd" d="M158.681 216.146L185.815 200.488V169.173L158.681 153.515L131.561 169.173V200.488L158.681 216.146ZM158.347 152.179L158.681 151.992L186.808 168.217L187.132 168.411V201.249L159.018 217.482L158.681 217.669L130.568 201.443L130.246 201.249V168.411L158.347 152.179Z" fill="#FEFEFE"/>
<path fill-rule="evenodd" clip-rule="evenodd" d="M159.572 132.145L174.657 123.441V106.032L159.572 97.3274L144.497 106.032V123.441L159.572 132.145ZM159.386 96.5852L159.572 96.4812L175.208 105.501L175.389 105.609V123.864L159.761 132.888L159.572 132.992L143.945 123.972L143.766 123.864V105.609L159.386 96.5852Z" fill="#FEFEFE"/>
<path fill-rule="evenodd" clip-rule="evenodd" d="M207.182 100.252L222.266 91.5471V74.1386L207.182 65.4339L192.105 74.1386V91.5471L207.182 100.252ZM206.996 64.6912L207.182 64.5872L222.818 73.6072L222.998 73.7145V91.9701L207.368 100.994L207.182 101.098L191.553 92.0775L191.374 91.9701V73.7145L206.996 64.6912Z" fill="#FEFEFE"/>
<path fill-rule="evenodd" clip-rule="evenodd" d="M311.183 108.27L328.007 98.5613V79.1432L311.183 69.4334L294.366 79.1432V98.5613L311.183 108.27ZM310.974 68.6055L311.182 68.489L328.623 78.5508L328.824 78.6707V99.0332L311.39 109.098L311.182 109.215L293.749 99.1538L293.549 99.0332V78.6707L310.974 68.6055Z" fill="#FEFEFE"/>
<path fill-rule="evenodd" clip-rule="evenodd" d="M311.214 187.165L333.33 174.402V148.877L311.214 136.115L289.108 148.877V174.402L311.214 187.165ZM310.941 135.026L311.214 134.873L334.141 148.099L334.403 148.256V175.023L311.488 188.254L311.214 188.406L288.299 175.181L288.035 175.023V148.256L310.941 135.026Z" fill="#FEFEFE"/>
<path fill-rule="evenodd" clip-rule="evenodd" d="M237.996 149.888V188.281H238.987V149.888H237.996Z" fill="#FEFEFE"/>
<path fill-rule="evenodd" clip-rule="evenodd" d="M263.82 134.582L288.482 149.047L288.978 148.208L264.316 133.743L263.82 134.582Z" fill="#FEFEFE"/>
<path fill-rule="evenodd" clip-rule="evenodd" d="M310.952 108.577V135.812H311.943V108.577H310.952Z" fill="#FEFEFE"/>
</g>
</g>
</svg>
