<svg width="69" height="69" viewBox="0 0 69 69" fill="none" xmlns="http://www.w3.org/2000/svg">
<g clip-path="url(#clip0_353_47)">
<rect width="69" height="69" rx="34.5" fill="url(#paint0_linear_353_47)"/>
<path d="M26.8153 -4V39.0907C26.8153 43.1512 28.3071 45.9391 31.2908 47.454C32.8423 47.8181 34.0357 47.9999 34.8712 47.9999C40.0031 47.9999 42.569 44.6664 42.569 37.9997V28.1816L54.3841 23.9089V39.818C54.3841 44.9088 52.7136 49.6359 49.3718 53.9995C45.672 57.9998 41.1369 60 35.7662 60H33.976C24.1896 60 17.9837 54.6664 15.358 43.9997C15.1193 42.4845 15 41.2119 15 40.1815V0.181767L26.8153 -4ZM20.7286 -0.909101L20.0125 -2.86102e-06H20.1916C20.4303 -0.484886 20.7286 -0.727273 21.0866 -0.727273V-0.909101H20.7286ZM19.1174 0.181767V0.363601H19.4755C19.4755 0.181767 19.5948 -0.0606141 19.8335 -0.363664H19.6545C19.4755 -0.363664 19.2964 -0.181836 19.1174 0.181767ZM15.895 1.2727V1.81812H16.0741C16.3128 1.69691 16.4918 1.6363 16.6111 1.6363L16.0741 2.36365H16.2531C16.2531 2.18181 16.4321 1.99996 16.7902 1.81812C16.7902 1.93933 16.8498 1.99996 16.9691 1.99996C17.2079 1.6363 17.3869 1.21209 17.5063 0.727262V0.363601H17.3272V0.545428L16.9691 0.363601C16.2531 0.81815 15.895 1.1212 15.895 1.2727ZM19.2964 1.45453C19.2964 1.69691 19.1175 1.81812 18.7594 1.81812V2.36365H18.9384C18.9384 1.99996 19.0578 1.81812 19.2964 1.81812C19.2964 1.93933 19.3561 1.99996 19.4755 1.99996L19.6545 1.6363L19.2964 1.45453ZM16.2531 3.99991V4.18176C17.0885 3.5757 17.5063 3.21207 17.5063 3.09092C16.7305 3.39386 16.3128 3.69692 16.2531 3.99991ZM16.2531 5.45444L15.895 5.99998V6.18171H16.0741C16.0741 5.99998 16.1934 5.7575 16.4321 5.45444H16.2531ZM16.4321 6.72724L16.0741 7.27266H16.2531L16.6111 6.72724H16.4321ZM15.895 8.90904C15.9249 9.1514 16.0443 9.27261 16.2531 9.27261C16.2531 9.1514 16.3128 9.09088 16.4321 9.09088C16.3128 8.8484 16.2531 8.66656 16.2531 8.54535C16.0144 8.57569 15.895 8.6969 15.895 8.90904ZM23.5929 10.3636H23.9509V9.99988C23.7122 10.0302 23.5929 10.1514 23.5929 10.3636ZM54.3841 11.909V19.818L42.569 24.0453V16.1817L54.3841 11.909ZM20.3705 12.5454L20.1916 12.9089H20.3705C20.3705 12.7878 20.4303 12.7272 20.5496 12.7272C20.5496 12.8484 20.6092 12.9089 20.7286 12.9089V12.7272L20.3705 12.5454ZM43.4642 17.2726L44.0012 17.6362L44.1802 17.2726C44.0609 17.0302 44.0012 16.8484 44.0012 16.7271C43.8222 16.7271 43.6431 16.909 43.4642 17.2726ZM49.5508 19.9999L49.1927 20.5453H49.3718L49.7299 19.9999H49.5508ZM15.895 20.1817V20.3635H16.2531V20.1817H15.895ZM50.9829 26.5452L51.341 26.7271V26.5452L51.699 26.7271H51.8781V26.3635C51.6393 26.3635 51.52 26.2422 51.52 25.9998C51.341 25.9998 51.162 26.1817 50.9829 26.5452ZM47.2235 28.1816V28.3635H47.5815V28.1816H47.2235ZM46.1494 29.9998V30.7271C46.3285 30.7271 46.5074 30.5453 46.6865 30.1816V29.818C46.4478 29.9392 46.2687 29.9998 46.1494 29.9998ZM47.9396 30.5453H48.4767V30.1816H48.2977C48.059 30.2119 47.9396 30.3331 47.9396 30.5453ZM48.1186 31.0907H48.2977C48.4767 31.0907 48.6557 30.9088 48.8347 30.5453C48.3573 30.7271 48.1186 30.9088 48.1186 31.0907ZM45.0753 30.9088L44.8963 31.2725V31.6361H45.2543C45.2543 31.5149 45.314 31.3332 45.4333 31.0907L45.0753 30.9088ZM44.1802 31.0907V31.2725C44.2101 31.5149 44.3294 31.6361 44.5383 31.6361L44.7172 31.2725L44.3592 31.0907H44.1802ZM45.7913 32.1816H45.9704L46.8655 31.0907H46.6865C46.5373 31.0907 46.2389 31.4544 45.7913 32.1816ZM47.5815 31.2725L47.4026 31.6361H47.5815L47.7606 31.2725H47.5815ZM19.8335 32.3634H20.0125C20.2512 32.3634 20.3705 32.2422 20.3705 31.9998V31.6361C20.1916 31.6361 20.0125 31.8786 19.8335 32.3634ZM43.6431 31.8179V32.3634C43.8818 32.3634 44.0012 32.2422 44.0012 31.9998V31.8179H43.6431ZM43.4642 32.5452V33.0907L43.6431 33.4543C43.8818 33.3331 44.0609 33.2725 44.1802 33.2725V33.0907H43.8222L44.1802 32.5452H43.4642ZM45.2543 34.1816V34.5453H45.4333C45.6124 34.5453 45.8511 34.3028 46.1494 33.818V33.6362H45.7913C45.6124 33.6362 45.4333 33.818 45.2543 34.1816ZM20.1916 34.3634H20.5496C20.7883 34.2422 20.9673 34.1816 21.0866 34.1816V33.818H20.9077C20.4303 33.9997 20.1916 34.1816 20.1916 34.3634ZM18.2223 34.1816L17.8643 34.727H18.0433C18.0731 34.4846 18.1925 34.3634 18.4013 34.3634C18.4013 34.4846 18.461 34.5453 18.5804 34.5453V34.3634L18.2223 34.1816ZM16.2531 34.3634L16.0741 35.0907C16.3128 35.0907 16.4321 34.9088 16.4321 34.5453V34.3634H16.2531ZM43.6431 35.9998H43.8222C44.0609 35.9998 44.1802 35.8786 44.1802 35.6361H44.0012C43.7625 35.6665 43.6431 35.7876 43.6431 35.9998ZM17.3272 36.7271H17.6852L17.8643 35.818C17.5958 35.818 17.4167 36.121 17.3272 36.7271ZM47.4026 35.9998V36.3634H47.7606C47.7606 36.121 47.6412 35.9998 47.4026 35.9998ZM16.6111 36.5452L16.0741 37.2725V37.4543L16.2531 38.3634C16.5813 38.3634 16.8797 38.0604 17.1482 37.4543C16.6708 37.4543 16.4321 37.2725 16.4321 36.9088C16.6708 36.9088 16.7902 36.7876 16.7902 36.5452H16.6111ZM23.5929 37.8179V37.9997H23.9509V37.8179H23.5929ZM53.131 39.2724L52.5943 40.1815V40.3634H52.7732C52.7732 40.1815 52.9521 39.818 53.3099 39.2724H53.131ZM23.0559 39.6361C23.0559 39.8785 22.8768 39.9997 22.5188 39.9997V40.3634C22.6978 40.3634 22.9365 40.121 23.2348 39.6361H23.0559ZM21.9818 40.3634V40.727H22.1607V40.3634H21.9818ZM49.0138 40.727L48.8347 41.0907H49.0138L49.1927 40.727H49.0138ZM21.2657 41.2725V41.4542H21.8027V41.0907C21.564 41.2119 21.385 41.2725 21.2657 41.2725ZM52.057 41.4542C51.6692 42.2118 51.1322 42.8179 50.4459 43.2724H51.162C51.162 43.0906 51.4603 42.6664 52.057 41.9998C51.9377 41.9998 51.8781 41.9391 51.8781 41.8179C52.1165 41.8179 52.2358 41.6967 52.2358 41.4542H52.057ZM48.8347 41.8179L47.7606 43.0906V43.2724H47.9396C47.9396 43.03 48.2977 42.5452 49.0138 41.8179H48.8347ZM51.162 41.8179L50.9829 42.1815H51.162L51.341 41.8179H51.162ZM49.9088 42.3633L49.3718 43.0906H49.5508L50.0879 42.3633H49.9088ZM52.057 43.9997H52.2358C52.4153 43.9997 52.6539 43.7573 52.9521 43.2724V43.0906H52.7732C52.6238 43.0906 52.3852 43.3937 52.057 43.9997ZM51.8781 43.2724L51.341 43.9997C51.4603 43.9997 51.52 44.0603 51.52 44.1816C51.341 44.1816 51.162 44.3633 50.9829 44.727C51.1023 44.727 51.162 44.7876 51.162 44.9088C49.8492 46.0603 49.1927 46.7269 49.1927 46.9088H49.3718C49.3718 46.7269 49.5508 46.5452 49.9088 46.3633H50.0879L50.4459 46.5452L50.804 45.9997H50.4459V45.8179C50.4459 45.6664 50.7443 45.5452 51.341 45.4542L50.9829 45.9997H51.341L51.699 45.8179L51.52 45.4542C51.52 45.3027 51.8184 44.9997 52.4153 44.5451L52.7732 44.727V44.1816L52.4153 44.3633C52.4153 44.2421 52.3556 44.1816 52.2358 44.1816C52.1762 44.4239 51.8781 44.6663 51.341 44.9088L51.162 44.5451C51.341 44.5451 51.5797 44.3028 51.8781 43.8179C51.7587 43.8179 51.699 43.7573 51.699 43.636C51.9377 43.636 52.057 43.5149 52.057 43.2724H51.8781ZM22.1607 43.4543V43.8179H22.3398V43.4543H22.1607ZM49.5508 43.4543C49.0734 43.9997 48.8347 44.3028 48.8347 44.3633H49.0138C49.0138 44.3028 49.2525 43.9997 49.7299 43.4543H49.5508ZM18.0433 43.636V43.9997C18.282 43.9997 18.4013 43.8785 18.4013 43.636H18.0433ZM46.8655 45.9997H47.0445L48.2977 44.3633H48.1186C47.7904 44.5149 47.3727 45.0603 46.8655 45.9997ZM19.2964 44.5451L18.4013 45.6361C18.5207 45.6361 18.5804 45.6967 18.5804 45.8179C18.3417 45.8482 18.2223 45.9694 18.2223 46.1815H18.4013L19.1174 45.4542L18.9384 45.0907C19.1175 45.0907 19.2964 44.9088 19.4755 44.5451H19.2964ZM48.1186 46.5452H48.4767C48.4767 46.3027 48.8347 45.9391 49.5508 45.4542C49.5508 45.2118 49.7895 44.9088 50.2669 44.5451H50.0879C49.9386 44.5451 49.2823 45.2118 48.1186 46.5452ZM43.2851 44.727L43.1061 45.0907H43.2851L43.4642 44.727H43.2851ZM16.7902 45.8179C17.0289 46.3027 17.1482 46.6664 17.1482 46.9088H17.8643L17.6852 46.5452C17.8046 46.3027 17.8643 46.1209 17.8643 45.9997L17.5063 46.1815C17.2676 46.1815 17.1482 46.0603 17.1482 45.8179C17.2676 45.6057 17.3272 45.3634 17.3272 45.0907C17.1482 45.0907 16.9691 45.333 16.7902 45.8179ZM52.4153 45.2724V45.8179H52.5943V45.2724H52.4153ZM46.5074 45.6361L45.7913 46.7269V46.9088H45.9704C45.9704 46.7573 46.2091 46.333 46.6865 45.6361H46.5074ZM19.1174 46.5452V47.0906H19.2964C19.2964 46.8482 19.4755 46.7269 19.8335 46.7269V45.9997H19.6545C19.4755 45.9997 19.2964 46.1815 19.1174 46.5452ZM42.7481 45.9997L42.569 46.3633H42.7481L42.9271 45.9997H42.7481ZM27.5314 47.6363C27.5612 47.8783 27.6805 47.9999 27.8894 47.9999C27.8894 47.8783 27.9491 47.8181 28.0684 47.8181L28.2475 48.727C28.1281 48.727 28.0684 48.7877 28.0684 48.9088H28.4264C28.4264 48.5753 28.7248 48.0908 29.3216 47.454L29.1425 47.0906L28.7845 47.2722H28.6055C28.6055 46.9088 28.4861 46.7269 28.2475 46.7269C28.0983 46.7269 27.8596 47.03 27.5314 47.6363ZM18.4013 47.0906L18.2223 47.454H18.4013L18.5804 47.0906H18.4013ZM51.162 47.0906C51.162 47.5756 50.9233 47.8181 50.4459 47.8181V47.9999H50.804C50.804 47.8783 50.8636 47.8181 50.9829 47.8181L51.162 48.1816C51.0426 48.1816 50.9829 48.2419 50.9829 48.3634C51.1023 48.3634 51.162 48.4242 51.162 48.5452C51.0426 48.5452 50.9829 48.606 50.9829 48.727C51.3111 48.727 51.6096 48.4242 51.8781 47.8181C51.6096 47.8181 51.3708 47.7573 51.162 47.6363L51.341 47.2722V47.0906H51.162ZM26.6362 47.2722C26.6661 47.5148 26.7854 47.6363 26.9943 47.6363V47.2722H26.6362ZM49.1927 47.2722L49.0138 47.6363H49.1927L49.3718 47.2722H49.1927ZM27.7103 47.454H28.0684V47.6363H27.7103V47.454ZM48.2977 47.6363L47.9396 48.1816L48.2977 48.3634V48.1816C48.1783 48.1816 48.1186 48.1209 48.1186 47.9999C48.3573 47.8783 48.5364 47.8181 48.6558 47.8181V47.6363H48.2977ZM29.6796 47.8181V48.1816H30.5747V47.9999L29.6796 47.8181ZM28.9635 48.1816C28.9635 48.3634 28.8442 48.606 28.6055 48.9088V49.0905H28.7845C29.0232 48.9695 29.2022 48.9088 29.3216 48.9088V48.5452C29.3216 48.3027 29.2022 48.1816 28.9635 48.1816ZM48.6558 49.6359V49.8176L49.3718 49.2723V49.4541L49.0138 49.9994C49.1331 49.9994 49.1927 50.0602 49.1927 50.1818C49.0734 50.1818 49.0138 50.2419 49.0138 50.3635C49.5508 50.1209 49.8492 49.8784 49.9088 49.6359C49.7895 49.3939 49.7299 49.2121 49.7299 49.0905C50.0282 48.848 50.2669 48.727 50.4459 48.727V48.3634H50.2669L48.6558 49.6359ZM46.6865 49.2723C47.1639 49.0905 47.4026 48.9087 47.4026 48.727C46.9252 48.9087 46.6865 49.0905 46.6865 49.2723ZM26.0992 48.9088L25.7412 49.4541C25.95 49.4541 26.1291 49.5756 26.2782 49.8176C26.6362 49.7267 26.875 49.4848 26.9943 49.0905C26.875 49.0905 26.8153 49.0298 26.8153 48.9088L26.4573 49.0905L26.0992 48.9088ZM50.2669 49.2723V49.6359L51.162 49.4541V49.2723C50.9233 49.2723 50.804 49.2121 50.804 49.0905C50.5652 49.2121 50.3862 49.2723 50.2669 49.2723ZM23.0559 50.5453H23.2348C23.2647 50.3027 23.3841 50.1818 23.5929 50.1818C23.5929 50.3027 23.6526 50.3635 23.7719 50.3635L24.3089 49.6359V49.2723C23.7122 49.2723 23.2945 49.6966 23.0559 50.5453ZM47.9396 49.2723C47.9396 49.6359 47.8203 49.8176 47.5815 49.8176C47.7009 50.0602 47.7606 50.2419 47.7606 50.3635C47.9993 50.3635 48.238 49.9994 48.4767 49.2723H47.9396ZM29.5005 49.6359C29.5005 49.8784 29.2619 50.2419 28.7845 50.7271H28.9635C29.4111 50.4845 29.7094 50.1209 29.8586 49.6359H29.5005ZM24.667 49.8176C24.5776 50.2419 24.2195 50.6055 23.5929 50.9088L23.2348 50.7271C23.2348 51.0906 23.0559 51.2724 22.6978 51.2724L22.8768 51.6359L22.6978 51.9995L22.8768 52.9089C23.4437 52.4545 23.9808 51.9086 24.488 51.2724C24.488 51.6359 24.667 51.8177 25.0251 51.8177L25.2041 51.4541V51.0906H24.8461C24.8461 51.0298 25.0847 50.7271 25.5621 50.1818C25.1743 49.9392 24.8759 49.8176 24.667 49.8176ZM25.7412 50.5453H26.0992V50.1818C25.8605 50.2119 25.7412 50.3328 25.7412 50.5453ZM28.4264 50.1818V50.3635H28.7845V50.1818H28.4264ZM26.4573 50.9088V51.2724H26.6362V50.9088H26.4573ZM49.9088 50.9088V51.2724C50.1475 51.2724 50.2669 51.1514 50.2669 50.9088H49.9088ZM45.2543 51.2724V51.4541H45.6124L45.7913 51.0906C45.5527 51.2116 45.3737 51.2724 45.2543 51.2724ZM49.3718 51.0906V51.2724H49.7299V51.0906H49.3718ZM23.5929 51.0906H23.9509V51.2724H23.5929V51.0906ZM25.3832 51.6359C25.3832 51.7876 25.0847 52.0904 24.488 52.5454L24.667 52.9089V53.0907L23.4139 52.9089H23.2348L23.4139 53.2725V53.4542C22.3398 53.6966 21.8027 54.0606 21.8027 54.5446C22.4293 55.151 22.9067 55.4545 23.2348 55.4545C24.0703 54.7264 24.488 54.2423 24.488 53.9995L24.8461 54.1812C25.0847 54.1812 25.2041 54.0606 25.2041 53.8177L24.8461 53.9995H24.667V53.8177C25.0251 53.2117 25.3832 52.9089 25.7412 52.9089C25.7412 52.6664 25.5621 52.5454 25.2041 52.5454V52.363L26.0992 52.1812V51.8177C25.8306 51.8177 25.592 51.7575 25.3832 51.6359ZM20.5496 52.363C20.5496 52.5454 20.7286 52.7271 21.0866 52.9089C21.0866 52.7874 21.1463 52.7271 21.2657 52.7271C21.1463 52.4846 21.0866 52.3028 21.0866 52.1812C20.8479 52.3028 20.6689 52.363 20.5496 52.363ZM21.6237 52.1812L21.4447 52.5454V52.9089C21.6237 52.9089 21.8027 52.7271 21.9818 52.363L21.6237 52.1812ZM24.13 52.1812V52.5454H24.3089V52.1812H24.13ZM45.9704 52.363V52.5454H46.3285V52.363H45.9704ZM48.2977 53.2725C48.417 53.2725 48.4767 53.3332 48.4767 53.4542C48.2678 53.4542 47.8501 53.8783 47.2235 54.7264H47.4026C47.9694 54.0906 48.5662 53.3633 49.1927 52.5454C48.6558 52.7874 48.3573 53.0299 48.2977 53.2725ZM47.4026 52.9089C47.4026 53.2725 47.2832 53.4542 47.0445 53.4542H46.8655L47.0445 53.0907H46.8655C46.8655 53.3026 46.2687 53.7272 45.0753 54.3629L44.3592 55.4545V55.6362C44.5979 55.6362 44.7172 55.7573 44.7172 55.9996H44.8963C45.7913 55.9996 46.4478 55.2727 46.8655 53.8177H47.0445C47.0445 53.9389 47.1042 53.9995 47.2235 53.9995L47.9396 52.9089H47.4026ZM44.5383 53.636L44.3592 53.9995V54.1812C44.5979 54.0606 44.7769 53.9995 44.8963 53.9995C44.8963 53.7572 44.7769 53.636 44.5383 53.636ZM24.3089 55.6362C24.9356 55.6362 25.5323 55.091 26.0992 53.9995V53.8177C26.0097 53.8177 25.4129 54.4241 24.3089 55.6362ZM45.6124 54.7264H46.3285C46.3285 54.9693 46.2091 55.091 45.9704 55.091H45.6124V54.7264ZM44.7172 55.091H45.0753V55.4545H44.7172V55.091ZM44.0012 56.3631C44.0012 56.7266 43.8818 56.9083 43.6431 56.9083L43.2851 56.7266L42.9271 57.2729H43.1061C43.9116 56.9083 44.389 56.7266 44.5383 56.7266C44.5383 56.4848 44.4189 56.3631 44.1802 56.3631H44.0012ZM40.9578 57.9998H41.1369L41.4949 57.4546V57.2729C41.3158 57.2729 41.1369 57.5146 40.9578 57.9998Z" fill="white"/>
</g>
<defs>
<linearGradient id="paint0_linear_353_47" x1="15.525" y1="5.175" x2="37" y2="65" gradientUnits="userSpaceOnUse">
<stop stop-color="#EF3232"/>
<stop offset="0.484023" stop-color="#EF3232"/>
<stop offset="0.485523" stop-color="#0065B1"/>
<stop offset="1" stop-color="#0065B1"/>
</linearGradient>
<clipPath id="clip0_353_47">
<rect width="69" height="69" rx="34.5" fill="white"/>
</clipPath>
</defs>
</svg>
